<?xml version="1.0" standalone="no"?>
<!DOCTYPE svg PUBLIC "-//W3C//DTD SVG 20010904//EN"
 "http://www.w3.org/TR/2001/REC-SVG-20010904/DTD/svg10.dtd">
<svg version="1.0" xmlns="http://www.w3.org/2000/svg"
 width="1141.000000pt" height="1141.000000pt" viewBox="0 0 1141.000000 1141.000000"
 preserveAspectRatio="xMidYMid meet">
<metadata>
Created by potrace 1.11, written by Peter Selinger 2001-2013
</metadata>
<g transform="translate(0.000000,1141.000000) scale(0.100000,-0.100000)"
fill="#000000" stroke="none">
<path d="M0 8148 c0 -178 0 -178 23 -179 172 -4 302 -25 363 -57 56 -31 89
-86 104 -174 5 -29 9 -687 10 -1463 0 -775 3 -1455 5 -1510 6 -124 19 -274 30
-335 2 -14 7 -45 10 -70 10 -75 55 -240 91 -338 135 -358 396 -603 804 -750
103 -37 209 -67 310 -88 41 -8 86 -18 100 -20 28 -6 45 -9 110 -18 25 -4 54
-8 65 -10 11 -2 49 -7 85 -11 36 -4 75 -8 88 -10 170 -27 1163 -27 1297 -1 11
2 55 7 98 10 320 28 697 128 955 253 l52 25 -2 327 -3 326 -67 0 c-77 0 -75
-5 -54 92 7 34 11 65 8 68 -3 3 22 5 54 5 l60 0 -1 48 0 47 48 3 47 3 0 54 c0
53 1 54 42 77 l43 23 0 410 c1 226 -1 417 -3 426 -2 9 -24 21 -53 28 -57 15
-79 41 -89 105 -6 43 14 172 30 191 6 7 54 11 122 10 l113 -1 0 327 0 326 -28
34 c-27 33 -28 36 -25 149 l3 115 50 1 c28 1 55 2 61 3 6 0 11 33 11 82 2 101
13 119 87 142 l56 18 0 310 0 309 -29 0 c-32 0 -40 17 -31 65 4 25 9 30 32 27
24 -3 27 1 37 46 21 98 52 166 97 209 l44 43 3 237 2 238 -1082 3 -1082 2 -3
-161 c-2 -106 1 -164 8 -170 6 -5 26 -8 45 -7 40 1 177 -11 201 -18 9 -3 25
-6 35 -8 103 -20 164 -94 178 -215 9 -76 10 -3099 1 -3189 -3 -34 -9 -90 -12
-124 -49 -550 -246 -856 -581 -904 -211 -30 -409 20 -536 136 -146 133 -243
371 -282 690 -3 25 -8 63 -12 85 -4 22 -8 767 -9 1655 -3 1728 -5 1671 44
1755 47 79 174 116 422 124 l35 1 0 170 c0 94 -2 171 -5 171 -3 1 -596 2
-1317 3 l-1313 1 0 -177z"/>
<path d="M5347 8088 c2 -212 4 -244 18 -253 67 -41 117 -144 128 -260 1 -13
10 -19 27 -20 39 0 46 -10 42 -54 -4 -38 -6 -41 -33 -41 -21 0 -29 -5 -30 -17
-1 -22 -1 -478 0 -550 l1 -51 49 -12 c29 -7 58 -22 73 -38 22 -25 24 -35 23
-113 l-1 -85 63 1 63 2 0 -121 c0 -116 -1 -121 -27 -148 l-26 -27 -1 -313 c-1
-172 2 -320 5 -328 6 -12 28 -15 113 -14 95 2 108 0 117 -17 5 -10 7 -19 3
-19 -3 0 -1 -7 6 -15 7 -9 13 -50 14 -106 1 -88 0 -91 -27 -115 -16 -14 -47
-30 -70 -36 l-42 -11 2 -421 c1 -232 2 -424 2 -428 1 -4 19 -17 41 -28 22 -11
40 -28 41 -38 1 -9 1 -34 1 -54 0 -37 1 -38 36 -39 21 -1 42 -1 49 0 7 1 10
-16 9 -49 -1 -44 1 -50 19 -51 99 -4 88 3 102 -69 19 -104 23 -98 -57 -96
l-70 1 2 -420 3 -420 685 0 685 0 -2 135 c-2 74 -3 138 -3 143 0 4 -57 7 -127
6 -201 -2 -292 29 -337 116 -21 40 -21 48 -23 925 -1 713 1 889 11 905 11 17
121 151 146 178 4 4 51 -63 105 -150 54 -87 117 -187 140 -223 68 -105 591
-943 606 -970 8 -14 20 -33 28 -43 8 -9 19 -26 25 -38 11 -20 363 -584 421
-674 18 -27 67 -106 110 -175 43 -69 81 -127 86 -130 6 -4 2081 -5 2100 -1 3
0 5 48 5 106 l-1 105 -140 1 c-176 0 -199 3 -258 28 -169 72 -323 267 -737
931 -49 79 -604 956 -645 1020 -23 36 -69 110 -104 165 -115 184 -194 310
-226 360 -18 28 -93 147 -167 265 -74 118 -179 285 -233 370 -144 228 -137
213 -117 241 9 13 22 31 29 39 6 8 74 98 150 200 75 102 140 187 143 190 3 3
27 34 55 70 63 83 272 346 305 383 122 139 163 176 233 210 114 55 195 70 399
72 98 1 181 4 184 7 5 6 7 150 5 295 l-1 41 -704 0 -704 -1 1 -168 0 -169 26
0 c128 -2 200 -8 219 -19 23 -12 23 -13 5 -41 -10 -15 -40 -52 -68 -82 -45
-50 -92 -104 -180 -207 -16 -20 -42 -49 -56 -66 -15 -16 -70 -82 -124 -145
-54 -63 -119 -140 -145 -170 -25 -30 -151 -179 -279 -330 -128 -151 -243 -286
-255 -300 -11 -14 -82 -97 -156 -185 -74 -88 -139 -165 -145 -171 -6 -6 -35
-41 -65 -78 l-55 -68 -3 859 c-2 587 1 870 8 895 22 78 85 95 333 92 l167 -2
0 184 0 184 -1013 0 -1012 0 2 -242z"/>
<path d="M5200 3964 c-81 -28 -145 -88 -187 -173 -36 -73 -38 -192 -4 -263 34
-71 94 -133 159 -165 49 -24 69 -28 142 -28 74 0 92 4 140 28 96 50 152 120
176 225 24 101 -3 202 -78 293 -23 28 -103 77 -143 88 -56 15 -152 13 -205 -5z
m220 -52 c219 -94 222 -409 5 -508 -63 -29 -115 -34 -181 -19 -158 36 -251
206 -198 360 52 156 224 232 374 167z"/>
<path d="M11049 3673 c-173 -87 -171 -345 5 -428 124 -59 270 -12 332 105 24
47 26 172 2 216 -66 122 -215 168 -339 107z m193 -32 c72 -31 110 -88 114
-171 3 -64 -15 -114 -56 -153 -100 -95 -254 -66 -311 58 -48 103 4 234 106
270 55 19 96 18 147 -4z"/>
<path d="M11070 3462 c0 -130 1 -140 19 -145 24 -6 28 4 26 71 -2 50 0 52 24
52 21 0 32 -11 59 -60 26 -48 38 -60 57 -60 19 0 23 4 18 18 -4 9 -9 19 -13
22 -3 3 -16 22 -28 43 l-22 38 25 9 c30 11 46 47 39 87 -9 48 -27 58 -119 62
l-85 3 0 -140z m154 75 c16 -25 -4 -51 -45 -57 -56 -9 -67 -3 -65 38 1 31 5
38 26 43 34 7 71 -3 84 -24z"/>
</g>
</svg>
